<mxfile host="app.diagrams.net" agent="Mozilla/5.0 (X11; Linux x86_64) AppleWebKit/537.36 (KHTML, like Gecko) Chrome/129.0.0.0 Safari/537.36" version="24.8.6">
  <diagram name="第 1 页" id="PzokZFdOADGy7_pB55ky">
    <mxGraphModel dx="2074" dy="1146" grid="1" gridSize="10" guides="1" tooltips="1" connect="1" arrows="1" fold="1" page="1" pageScale="1" pageWidth="3300" pageHeight="4681" math="0" shadow="0">
      <root>
        <mxCell id="0" />
        <mxCell id="1" parent="0" />
        <mxCell id="ArdMYgsBvblEmgynCt6V-97" value="" style="rounded=1;whiteSpace=wrap;html=1;fillColor=#ffe6cc;strokeColor=#d79b00;glass=0;shadow=1;" parent="1" vertex="1">
          <mxGeometry x="2294.5" y="1320" width="285.5" height="640" as="geometry" />
        </mxCell>
        <mxCell id="ArdMYgsBvblEmgynCt6V-98" value="" style="rounded=1;whiteSpace=wrap;html=1;fillColor=#ffe6cc;strokeColor=#d79b00;shadow=1;" parent="1" vertex="1">
          <mxGeometry x="1450" y="1320" width="720" height="650" as="geometry" />
        </mxCell>
        <mxCell id="ArdMYgsBvblEmgynCt6V-99" value="&lt;b&gt;twisted&lt;/b&gt;" style="rounded=0;whiteSpace=wrap;html=1;fontSize=12;fontStyle=0;fontColor=default;fontFamily=Helvetica;" parent="1" vertex="1">
          <mxGeometry x="1500" y="1660" width="657" height="85" as="geometry" />
        </mxCell>
        <mxCell id="ArdMYgsBvblEmgynCt6V-109" value="Central" style="text;strokeColor=none;align=center;fillColor=none;html=1;verticalAlign=middle;whiteSpace=wrap;rounded=0;fontSize=20;fontStyle=1" parent="1" vertex="1">
          <mxGeometry x="1750" y="1930" width="60" height="30" as="geometry" />
        </mxCell>
        <mxCell id="ArdMYgsBvblEmgynCt6V-110" value="Edge" style="text;strokeColor=none;align=center;fillColor=none;html=1;verticalAlign=middle;whiteSpace=wrap;rounded=0;fontSize=20;fontStyle=1" parent="1" vertex="1">
          <mxGeometry x="2415" y="1920" width="60" height="30" as="geometry" />
        </mxCell>
        <mxCell id="ArdMYgsBvblEmgynCt6V-118" value="upload cc and image to cortex" style="text;strokeColor=none;align=center;fillColor=none;html=1;verticalAlign=middle;whiteSpace=wrap;rounded=0;" parent="1" vertex="1">
          <mxGeometry x="2200" y="1442.5" width="60" height="30" as="geometry" />
        </mxCell>
        <mxCell id="ArdMYgsBvblEmgynCt6V-123" value="release product type" style="text;strokeColor=none;align=center;fillColor=none;html=1;verticalAlign=middle;whiteSpace=wrap;rounded=0;" parent="1" vertex="1">
          <mxGeometry x="2300" y="1658.5" width="100" height="30" as="geometry" />
        </mxCell>
        <mxCell id="ArdMYgsBvblEmgynCt6V-127" value="tcp server: 18890" style="text;strokeColor=none;align=center;fillColor=none;html=1;verticalAlign=middle;whiteSpace=wrap;rounded=0;" parent="1" vertex="1">
          <mxGeometry x="2070" y="1672" width="60" height="30" as="geometry" />
        </mxCell>
        <mxCell id="ArdMYgsBvblEmgynCt6V-131" value="chrome" style="ellipse;whiteSpace=wrap;html=1;aspect=fixed;fillColor=#f8cecc;strokeColor=#b85450;" parent="1" vertex="1">
          <mxGeometry x="1686.5" y="1374" width="80" height="80" as="geometry" />
        </mxCell>
        <mxCell id="ArdMYgsBvblEmgynCt6V-132" value="" style="endArrow=classic;startArrow=classic;html=1;rounded=0;exitX=0.5;exitY=1;exitDx=0;exitDy=0;" parent="1" source="ArdMYgsBvblEmgynCt6V-131" edge="1">
          <mxGeometry width="50" height="50" relative="1" as="geometry">
            <mxPoint x="2300" y="1664" as="sourcePoint" />
            <mxPoint x="1727" y="1517" as="targetPoint" />
          </mxGeometry>
        </mxCell>
        <mxCell id="ArdMYgsBvblEmgynCt6V-134" value="web server: 80" style="text;strokeColor=none;align=center;fillColor=none;html=1;verticalAlign=middle;whiteSpace=wrap;rounded=0;" parent="1" vertex="1">
          <mxGeometry x="1640" y="1467" width="77" height="30" as="geometry" />
        </mxCell>
        <mxCell id="ArdMYgsBvblEmgynCt6V-137" value="django wsgi" style="rounded=0;whiteSpace=wrap;html=1;fillColor=#d5e8d4;strokeColor=#82b366;" parent="1" vertex="1">
          <mxGeometry x="1666.5" y="1673" width="120" height="60" as="geometry" />
        </mxCell>
        <mxCell id="ArdMYgsBvblEmgynCt6V-138" value="twisted tcp server" style="rounded=0;whiteSpace=wrap;html=1;fillColor=#dae8fc;strokeColor=#6c8ebf;" parent="1" vertex="1">
          <mxGeometry x="1940.5" y="1673" width="120" height="60" as="geometry" />
        </mxCell>
        <mxCell id="ArdMYgsBvblEmgynCt6V-142" value="nginx" style="rounded=0;whiteSpace=wrap;html=1;fillColor=#d5e8d4;strokeColor=#82b366;" parent="1" vertex="1">
          <mxGeometry x="1666.5" y="1518" width="120" height="60" as="geometry" />
        </mxCell>
        <mxCell id="ArdMYgsBvblEmgynCt6V-143" value="" style="endArrow=classic;startArrow=classic;html=1;rounded=0;exitX=0.5;exitY=1;exitDx=0;exitDy=0;" parent="1" edge="1" source="ArdMYgsBvblEmgynCt6V-142">
          <mxGeometry width="50" height="50" relative="1" as="geometry">
            <mxPoint x="1727" y="1611" as="sourcePoint" />
            <mxPoint x="1727" y="1674" as="targetPoint" />
          </mxGeometry>
        </mxCell>
        <mxCell id="ArdMYgsBvblEmgynCt6V-144" value="http server: 18889" style="text;strokeColor=none;align=center;fillColor=none;html=1;verticalAlign=middle;whiteSpace=wrap;rounded=0;" parent="1" vertex="1">
          <mxGeometry x="1726" y="1627" width="77" height="30" as="geometry" />
        </mxCell>
        <mxCell id="ArdMYgsBvblEmgynCt6V-145" value="" style="rounded=1;whiteSpace=wrap;html=1;fillColor=#ffe6cc;strokeColor=#d79b00;shadow=1;" parent="1" vertex="1">
          <mxGeometry x="720" y="1320" width="577" height="650" as="geometry" />
        </mxCell>
        <mxCell id="ArdMYgsBvblEmgynCt6V-146" value="&lt;b&gt;gRPC Server&lt;/b&gt;" style="rounded=0;whiteSpace=wrap;html=1;fontSize=12;fontStyle=0;fontColor=default;fontFamily=Helvetica;" parent="1" vertex="1">
          <mxGeometry x="1130" y="1820" width="100" height="85" as="geometry" />
        </mxCell>
        <mxCell id="ArdMYgsBvblEmgynCt6V-152" value="CorteX" style="text;strokeColor=none;align=center;fillColor=none;html=1;verticalAlign=middle;whiteSpace=wrap;rounded=0;fontSize=20;fontStyle=1" parent="1" vertex="1">
          <mxGeometry x="1030" y="1929.5" width="60" height="30" as="geometry" />
        </mxCell>
        <mxCell id="ArdMYgsBvblEmgynCt6V-153" value="" style="shape=cylinder3;whiteSpace=wrap;html=1;boundedLbl=1;backgroundOutline=1;size=15;fillColor=#e1d5e7;strokeColor=#9673a6;" parent="1" vertex="1">
          <mxGeometry x="1016" y="1824" width="60" height="80" as="geometry" />
        </mxCell>
        <mxCell id="ArdMYgsBvblEmgynCt6V-154" value="" style="endArrow=classic;startArrow=classic;html=1;rounded=0;" parent="1" source="ArdMYgsBvblEmgynCt6V-153" edge="1">
          <mxGeometry width="50" height="50" relative="1" as="geometry">
            <mxPoint x="1616" y="1893.32" as="sourcePoint" />
            <mxPoint x="1046" y="1750" as="targetPoint" />
          </mxGeometry>
        </mxCell>
        <mxCell id="ArdMYgsBvblEmgynCt6V-163" value="electron" style="ellipse;whiteSpace=wrap;html=1;aspect=fixed;fillColor=#f8cecc;strokeColor=#b85450;" parent="1" vertex="1">
          <mxGeometry x="1010" y="1487" width="80" height="80" as="geometry" />
        </mxCell>
        <mxCell id="ArdMYgsBvblEmgynCt6V-164" value="" style="endArrow=classic;startArrow=classic;html=1;rounded=0;exitX=0.5;exitY=1;exitDx=0;exitDy=0;" parent="1" source="ArdMYgsBvblEmgynCt6V-163" edge="1">
          <mxGeometry width="50" height="50" relative="1" as="geometry">
            <mxPoint x="1620" y="1697" as="sourcePoint" />
            <mxPoint x="1050" y="1660" as="targetPoint" />
          </mxGeometry>
        </mxCell>
        <mxCell id="ArdMYgsBvblEmgynCt6V-175" value="&lt;b&gt;django server&lt;/b&gt;" style="rounded=0;whiteSpace=wrap;html=1;fontSize=12;fontStyle=0;fontColor=default;fontFamily=Helvetica;" parent="1" vertex="1">
          <mxGeometry x="810" y="1660.5" width="420" height="85" as="geometry" />
        </mxCell>
        <mxCell id="ArdMYgsBvblEmgynCt6V-177" value="product type/view" style="text;strokeColor=none;align=center;fillColor=none;html=1;verticalAlign=middle;whiteSpace=wrap;rounded=0;" parent="1" vertex="1">
          <mxGeometry x="1046" y="1767" width="60" height="30" as="geometry" />
        </mxCell>
        <mxCell id="xq7-DkZQs1Acq1c8sGdA-1" value="&lt;b&gt;&lt;font style=&quot;font-size: 15px;&quot;&gt;optix&lt;/font&gt;&lt;/b&gt;" style="rounded=1;whiteSpace=wrap;html=1;fontSize=12;fontStyle=0;fontFamily=Helvetica;fillColor=#fad7ac;strokeColor=#b46504;" parent="1" vertex="1">
          <mxGeometry x="2400" y="1442.5" width="90" height="85" as="geometry" />
        </mxCell>
        <mxCell id="xq7-DkZQs1Acq1c8sGdA-3" value="" style="endArrow=classic;html=1;rounded=0;entryX=0.996;entryY=0.647;entryDx=0;entryDy=0;entryPerimeter=0;exitX=0.005;exitY=0.628;exitDx=0;exitDy=0;exitPerimeter=0;" parent="1" target="ArdMYgsBvblEmgynCt6V-99" edge="1">
          <mxGeometry width="50" height="50" relative="1" as="geometry">
            <mxPoint x="2401.0549999999994" y="1713.9609999999998" as="sourcePoint" />
            <mxPoint x="2740" y="1500" as="targetPoint" />
          </mxGeometry>
        </mxCell>
        <mxCell id="xq7-DkZQs1Acq1c8sGdA-7" value="" style="endArrow=classic;html=1;rounded=0;entryX=1;entryY=0.353;entryDx=0;entryDy=0;entryPerimeter=0;" parent="1" edge="1">
          <mxGeometry width="50" height="50" relative="1" as="geometry">
            <mxPoint x="1520" y="1855" as="sourcePoint" />
            <mxPoint x="1230" y="1855.0049999999997" as="targetPoint" />
          </mxGeometry>
        </mxCell>
        <mxCell id="xq7-DkZQs1Acq1c8sGdA-8" value="get pruduct type from cortex" style="text;strokeColor=none;align=center;fillColor=none;html=1;verticalAlign=middle;whiteSpace=wrap;rounded=0;" parent="1" vertex="1">
          <mxGeometry x="1330" y="1874.5" width="60" height="30" as="geometry" />
        </mxCell>
        <mxCell id="xq7-DkZQs1Acq1c8sGdA-9" value="create product type/view" style="text;strokeColor=none;align=center;fillColor=none;html=1;verticalAlign=middle;whiteSpace=wrap;rounded=0;" parent="1" vertex="1">
          <mxGeometry x="980" y="1597" width="60" height="30" as="geometry" />
        </mxCell>
        <mxCell id="xq7-DkZQs1Acq1c8sGdA-10" value="save cc to db" style="text;strokeColor=none;align=center;fillColor=none;html=1;verticalAlign=middle;whiteSpace=wrap;rounded=0;" parent="1" vertex="1">
          <mxGeometry x="989.5" y="1767" width="53" height="30" as="geometry" />
        </mxCell>
        <mxCell id="xq7-DkZQs1Acq1c8sGdA-16" value="" style="shape=cylinder3;whiteSpace=wrap;html=1;boundedLbl=1;backgroundOutline=1;size=15;fillColor=#e1d5e7;strokeColor=#9673a6;" parent="1" vertex="1">
          <mxGeometry x="1820" y="1824" width="60" height="80" as="geometry" />
        </mxCell>
        <mxCell id="xq7-DkZQs1Acq1c8sGdA-17" value="" style="endArrow=classic;startArrow=classic;html=1;rounded=0;entryX=0.058;entryY=0.959;entryDx=0;entryDy=0;entryPerimeter=0;" parent="1" edge="1">
          <mxGeometry width="50" height="50" relative="1" as="geometry">
            <mxPoint x="1849.5" y="1825" as="sourcePoint" />
            <mxPoint x="1850.5" y="1744" as="targetPoint" />
          </mxGeometry>
        </mxCell>
        <mxCell id="xq7-DkZQs1Acq1c8sGdA-18" value="save product type edge mapping when deploy" style="text;strokeColor=none;align=center;fillColor=none;html=1;verticalAlign=middle;whiteSpace=wrap;rounded=0;" parent="1" vertex="1">
          <mxGeometry x="1850" y="1773" width="189.5" height="30" as="geometry" />
        </mxCell>
        <mxCell id="xq7-DkZQs1Acq1c8sGdA-25" value="" style="endArrow=classic;html=1;rounded=0;exitX=0.998;exitY=0.329;exitDx=0;exitDy=0;exitPerimeter=0;entryX=1;entryY=1;entryDx=0;entryDy=0;" parent="1" source="ArdMYgsBvblEmgynCt6V-99" target="ArdMYgsBvblEmgynCt6V-123" edge="1">
          <mxGeometry width="50" height="50" relative="1" as="geometry">
            <mxPoint x="2150" y="1710" as="sourcePoint" />
            <mxPoint x="2200" y="1660" as="targetPoint" />
          </mxGeometry>
        </mxCell>
        <mxCell id="y02z2JQXuIzH-TiVJOg5-1" value="" style="endArrow=classic;html=1;rounded=0;exitX=0;exitY=0.5;exitDx=0;exitDy=0;" parent="1" source="xq7-DkZQs1Acq1c8sGdA-1" edge="1">
          <mxGeometry width="50" height="50" relative="1" as="geometry">
            <mxPoint x="1930" y="1610" as="sourcePoint" />
            <mxPoint x="1730" y="1485" as="targetPoint" />
          </mxGeometry>
        </mxCell>
        <mxCell id="y02z2JQXuIzH-TiVJOg5-2" value="&lt;b&gt;&lt;font style=&quot;font-size: 15px;&quot;&gt;startx&lt;/font&gt;&lt;/b&gt;" style="rounded=1;whiteSpace=wrap;html=1;fontSize=12;fontStyle=0;fontFamily=Helvetica;fillColor=#fad7ac;strokeColor=#b46504;" parent="1" vertex="1">
          <mxGeometry x="2400" y="1652.5" width="90" height="85" as="geometry" />
        </mxCell>
        <mxCell id="y02z2JQXuIzH-TiVJOg5-3" value="register&lt;div&gt;login&lt;/div&gt;" style="text;strokeColor=none;align=center;fillColor=none;html=1;verticalAlign=middle;whiteSpace=wrap;rounded=0;" parent="1" vertex="1">
          <mxGeometry x="2300" y="1717.5" width="100" height="30" as="geometry" />
        </mxCell>
        <mxCell id="y02z2JQXuIzH-TiVJOg5-5" value="grpc client" style="text;strokeColor=none;align=center;fillColor=none;html=1;verticalAlign=middle;whiteSpace=wrap;rounded=0;" parent="1" vertex="1">
          <mxGeometry x="1519" y="1840" width="60" height="30" as="geometry" />
        </mxCell>
        <mxCell id="y02z2JQXuIzH-TiVJOg5-7" value="" style="shape=cube;whiteSpace=wrap;html=1;boundedLbl=1;backgroundOutline=1;darkOpacity=0.05;darkOpacity2=0.1;" parent="1" vertex="1">
          <mxGeometry x="886" y="1844.03" width="70" height="50" as="geometry" />
        </mxCell>
        <mxCell id="y02z2JQXuIzH-TiVJOg5-8" value="" style="endArrow=classic;html=1;rounded=0;entryX=0;entryY=0;entryDx=25;entryDy=0;entryPerimeter=0;exitX=0.277;exitY=0.982;exitDx=0;exitDy=0;exitPerimeter=0;" parent="1" target="y02z2JQXuIzH-TiVJOg5-7" edge="1">
          <mxGeometry width="50" height="50" relative="1" as="geometry">
            <mxPoint x="911.989" y="1747.4999999999998" as="sourcePoint" />
            <mxPoint x="950" y="1594.03" as="targetPoint" />
          </mxGeometry>
        </mxCell>
        <mxCell id="y02z2JQXuIzH-TiVJOg5-9" value="save capture image to disk" style="text;strokeColor=none;align=center;fillColor=none;html=1;verticalAlign=middle;whiteSpace=wrap;rounded=0;" parent="1" vertex="1">
          <mxGeometry x="850" y="1771.03" width="60" height="30" as="geometry" />
        </mxCell>
        <mxCell id="BE4VmYY5CBbPXhqa7DNP-2" value="" style="endArrow=classic;startArrow=classic;html=1;rounded=0;" edge="1" parent="1">
          <mxGeometry width="50" height="50" relative="1" as="geometry">
            <mxPoint x="1050" y="1620" as="sourcePoint" />
            <mxPoint x="1730" y="1620" as="targetPoint" />
          </mxGeometry>
        </mxCell>
        <mxCell id="BE4VmYY5CBbPXhqa7DNP-3" value="call cortex http api&lt;div&gt;&lt;br&gt;&lt;/div&gt;&lt;div&gt;encrypted_edge_id = aes256(edge_id, data, bind_code)&lt;/div&gt;" style="text;strokeColor=none;align=center;fillColor=none;html=1;verticalAlign=middle;whiteSpace=wrap;rounded=0;" vertex="1" parent="1">
          <mxGeometry x="2200" y="1512" width="60" height="30" as="geometry" />
        </mxCell>
        <mxCell id="BE4VmYY5CBbPXhqa7DNP-5" value="get model info" style="text;strokeColor=none;align=center;fillColor=none;html=1;verticalAlign=middle;whiteSpace=wrap;rounded=0;" vertex="1" parent="1">
          <mxGeometry x="1330" y="1803" width="60" height="30" as="geometry" />
        </mxCell>
      </root>
    </mxGraphModel>
  </diagram>
</mxfile>
